<?xml version="1.0" encoding="utf-8"?>
<!-- Generator: Adobe Illustrator 26.4.1, SVG Export Plug-In . SVG Version: 6.00 Build 0)  -->
<svg version="1.1" id="Layer_1" xmlns="http://www.w3.org/2000/svg" xmlns:xlink="http://www.w3.org/1999/xlink" x="0px" y="0px"
	 viewBox="0 0 1080 1080" style="enable-background:new 0 0 1080 1080;" xml:space="preserve">
<style type="text/css">
	.st0{fill:#F4B941;}
	.st1{fill:#353535;}
	.st2{fill:#F56D6B;}
</style>
<g>
	<path class="st0" d="M790.47,183.7L790.47,183.7c0,11.13-9.02,20.15-20.15,20.15H338.59c-72.6,0-131.44,58.85-131.44,131.44v471.27
		c0,11.13-9.02,20.15-20.15,20.15h-39.55C74.85,826.72,16,767.87,16,695.27V183.7c0-72.6,58.85-131.44,131.44-131.44h511.58
		C731.62,52.25,790.47,111.1,790.47,183.7z"/>
	<path class="st0" d="M948.65,729.33v92.61c0,9.92,8.04,17.96,17.96,17.96h67.72v76.56c0,61.46-49.83,111.29-111.29,111.29H371.17
		c-61.46,0-111.29-49.83-111.29-111.29V364.58c0-61.46,49.83-111.29,111.29-111.29h551.88c61.46,0,111.29,49.83,111.29,111.29v346.8
		h-67.72C956.7,711.37,948.65,719.41,948.65,729.33z"/>
	<g>
		<g>
			<path class="st1" d="M893.26,436.29v406.57H766.35V640.15l-62.59,202.71H594.65l-62.59-202.71v202.71H404.58V436.29h156.19
				l89.58,244.06l87.29-244.06H893.26z"/>
		</g>
	</g>
	<path class="st2" d="M1064,738.83v73.61c0,7.88-6.39,14.28-14.28,14.28h-73.61c-7.88,0-14.28-6.39-14.28-14.28v-73.61
		c0-7.88,6.39-14.28,14.28-14.28h73.61C1057.61,724.55,1064,730.95,1064,738.83z"/>
</g>
</svg>
